<svg xmlns="http://www.w3.org/2000/svg" width="74.302" height="74.314" viewBox="0 0 74.302 74.314">
  <g id="video-icon" transform="translate(0)">
    <path id="Path_4" data-name="Path 4" d="M63.421,10.883A37.151,37.151,0,0,0,0,37.157a1.089,1.089,0,1,0,2.177,0,34.973,34.973,0,0,1,59.7-24.735A34.978,34.978,0,1,1,2.527,42.12a1.089,1.089,0,1,0-2.156.306,37.154,37.154,0,1,0,63.05-31.544Zm0,0" fill="#fff"/>
    <path id="Path_5" data-name="Path 5" d="M177.372,144.267a1,1,0,0,1,1.044.04l7.452,4.823a1.089,1.089,0,0,0,1.183-1.827l-7.453-4.824a3.2,3.2,0,0,0-4.939,2.687v28.306a3.2,3.2,0,0,0,4.939,2.687l21.868-14.153a3.2,3.2,0,0,0,0-5.374l-9.743-6.306a1.089,1.089,0,0,0-1.183,1.828l9.743,6.306a1.023,1.023,0,0,1,0,1.719l-21.867,14.153a1.023,1.023,0,0,1-1.579-.86V145.166a1,1,0,0,1,.535-.9Zm0,0" transform="translate(-149.309 -121.359)" fill="#fff"/>
  </g>
</svg>
